<svg width="430" height="932" viewBox="0 0 430 932" fill="none" xmlns="http://www.w3.org/2000/svg">
<g clip-path="url(#clip0_243_116)">
<mask id="mask0_243_116" style="mask-type:luminance" maskUnits="userSpaceOnUse" x="-195" y="-6" width="929" height="945">
<path d="M734 -5.90314H-195V938.097H734V-5.90314Z" fill="white"/>
</mask>
<g mask="url(#mask0_243_116)">
<path d="M338.476 -39.6587C365.484 12.9957 394.419 67.8856 443.022 100.852C467.684 117.578 498.495 130.065 510.156 157.766C514.814 168.829 515.724 181.111 519.001 192.675C528.414 225.894 556.429 250.334 586.057 267.326C615.684 284.318 648.218 295.956 676.629 314.974C731.744 351.867 767.637 416.809 769.956 483.833C771.277 521.991 762.418 560.331 767.412 598.174C768.156 599.752 730.966 663.4 730.966 663.4L736.406 677.221C751.707 679.985 777.55 688.622 777.55 688.622C777.55 688.622 793.292 719.954 796.746 746.924C798.993 764.473 819.072 773.913 833.037 784.487C908.267 841.458 993.36 892.838 1038.03 976.678" stroke="#D1D1D1" stroke-miterlimit="10"/>
<path d="M93.932 -65.0806C119.034 -23.2652 144.137 18.5521 169.239 60.3675C193.716 101.143 219.048 145.095 217.071 192.816C215.354 234.215 193.311 271.408 174.612 308.23C155.911 345.051 139.689 387.105 150.462 427.068C162.195 470.596 204.397 504.761 202.53 549.854C201.506 574.555 186.778 596.729 169.016 613.625C151.253 630.519 130.228 643.444 111.488 659.213C76.11 688.981 49.2117 729.039 34.8364 773.369C26.3843 799.429 22.1741 826.858 12.2152 852.363C-0.972837 886.135 -23.6479 915.086 -40.7638 946.987C-57.8797 978.889 -69.4792 1016.96 -58.0673 1051.4" stroke="#D1D1D1" stroke-miterlimit="10"/>
<path d="M-454.013 595.648C-433.283 554.289 -402.301 519.32 -371.683 484.877C-360.483 472.278 -349.147 459.559 -335.392 449.922C-322.983 441.228 -308.946 435.288 -295.025 429.413C-225.33 399.99 -155.584 370.551 -84.3208 345.299C-73.3066 341.396 -62.127 337.53 -52.3744 331.029C-42.7444 324.61 -34.8702 315.861 -27.2338 307.097C-14.252 292.199 -1.63427 276.974 10.6044 261.441C17.609 252.553 24.623 243.311 28.0306 232.461C32.5344 218.119 30.2695 202.602 31.4586 187.596C33.3538 163.69 44.0893 140.319 40.5944 116.6C37.2667 94.0155 21.7375 75.6264 7.76535 57.7413C-19.0326 23.4364 -42.2613 -13.744 -61.408 -52.9842" stroke="#D1D1D1" stroke-miterlimit="10"/>
<path d="M522.314 446.932C522.316 444.868 522.283 442.676 521.194 440.934C519.838 438.764 517.221 437.856 514.8 437.116C487.943 428.894 460.454 422.805 432.666 418.918C425.693 425.331 418.166 431.124 410.201 436.204C410.188 452.02 410.173 467.834 410.16 483.65C424.193 487.42 437.892 492.467 451.043 498.708C453.041 499.656 455.086 500.649 457.286 500.796C462.868 501.17 467.199 496.26 471.966 493.288C478.633 489.134 487.018 488.649 494.675 490.265C502.331 491.881 509.444 495.419 516.462 498.922C521.047 501.208 522.312 449.658 522.314 446.932Z" stroke="#D1D1D1" stroke-miterlimit="10"/>
<path d="M400.402 385.285C392.892 385.513 384.412 386.463 379.822 392.51C376.972 396.265 376.29 401.202 375.399 405.858C372.814 419.335 367.662 432.298 360.312 443.818C353.889 453.885 345.451 463.918 345.648 475.914C345.778 483.842 349.754 491.111 353.621 497.996C356.315 502.796 359.009 507.593 361.705 512.392C362.785 514.314 363.931 516.312 365.761 517.515C367.498 518.657 369.635 518.936 371.694 519.157C408.592 523.126 446.471 517.235 480.513 502.237C482.802 501.229 485.11 500.17 487.581 499.82C490.808 499.365 494.067 500.154 497.233 500.936C504.067 502.626 510.899 504.316 517.732 506.007C519.306 506.396 521.003 506.779 522.509 506.172C524.414 505.403 525.41 503.315 526.201 501.393C533.957 482.553 538.778 462.47 540.432 442.119C540.562 440.533 540.656 438.864 539.997 437.42C539.25 435.785 537.671 434.733 536.142 433.821C526.118 427.852 514.949 424.212 504.314 419.459C487.165 411.798 473.102 400.664 457.53 390.652C442.998 381.311 416.977 384.779 400.402 385.285Z" stroke="#D1D1D1" stroke-miterlimit="10"/>
<path d="M415.407 365.971C436.843 363.705 459.324 362.342 479.149 370.927C493.721 377.236 505.613 388.404 518.273 398.078C528.607 405.975 539.61 412.97 551.119 418.961C561.646 424.442 573.697 430.283 577.391 441.702C578.74 445.873 578.771 450.353 578.656 454.741C577.961 480.948 572.406 507.014 562.363 531.165C560.706 535.15 558.896 539.138 556.182 542.47C547.618 552.985 532.02 554.57 519 551.217C505.979 547.864 494.292 540.58 481.631 536.019C452.394 525.484 420.2 530.068 389.653 535.555C380.779 537.148 371.227 538.724 363.089 534.794C356.131 531.433 351.503 524.638 347.272 518.096C339.528 506.121 332.012 493.992 324.733 481.72C321.316 475.96 317.819 469.488 319.045 462.878C319.733 459.175 321.84 455.932 323.9 452.8C323.9 449.216 331.728 440.903 333.781 437.784C337.239 432.53 340.697 427.274 344.156 422.02C351.237 411.258 358.322 400.5 365.399 389.737C369.605 383.338 372.756 375.792 379.772 372.348C389.976 367.337 404.309 367.143 415.407 365.971Z" stroke="#D1D1D1" stroke-miterlimit="10"/>
<path d="M405.439 268.89C399.277 266.592 392.975 264.264 386.413 264.13C379.213 263.983 372.245 266.481 365.464 268.946C344.372 276.617 323.28 284.288 302.188 291.959C275.275 301.747 245.976 313.567 232.682 339.282C225.012 354.118 223.955 371.444 223.052 388.177C222.113 405.558 221.177 422.939 220.239 440.32C219.899 446.635 219.572 453.089 221.279 459.17C223.375 466.641 228.341 472.879 233.165 478.905C247.598 496.941 262.352 516.287 265.799 539.268C269.256 562.313 260.799 585.288 258.2 608.45C257.793 612.077 257.549 615.87 258.861 619.268C260.609 623.792 264.766 626.805 268.71 629.554C283.452 639.827 298.191 650.099 312.933 660.372C316.269 662.698 319.709 665.069 323.649 665.996C327.923 667.003 332.382 666.217 336.713 665.515C401.16 655.074 468.536 664.093 528.122 691.139C550.931 701.491 572.61 714.407 595.934 723.497C600.636 725.331 605.668 727.03 610.621 726.108C615.684 725.166 619.857 721.64 623.713 718.173C651.703 693.004 676.493 664.165 697.273 632.598C703.869 622.576 710.199 611.918 712.003 600.001C714.147 585.83 709.677 571.623 706.648 557.62C700.314 528.329 700.249 497.655 706.457 468.336C708.365 459.328 710.866 450.053 708.967 441.045C707.094 432.162 701.171 424.761 694.928 418.259C676.211 398.767 653.004 383.967 635.511 363.335C629.721 356.506 624.608 349.094 618.572 342.49C591.753 313.141 561.635 314.421 525.885 311.995C507.45 310.743 488.287 299.804 471.093 293.39C449.207 285.221 427.324 277.055 405.439 268.89Z" stroke="#D1D1D1" stroke-miterlimit="10"/>
<path d="M243.728 436.982C242.579 443.426 240.896 450.045 241.359 456.523C241.936 464.598 245.054 471.993 249.842 478.83C256.321 488.077 263.755 497.07 269.282 506.959C273.491 514.492 276.726 522.444 278.32 530.936C282.023 550.63 276.51 570.424 275.631 590.233C275.494 593.335 275.484 596.558 276.649 599.48C278.201 603.372 281.586 606.111 284.808 608.665C293.358 615.445 302.097 622.255 311.309 628.282C315.327 630.91 319.391 633.377 323.469 635.771C326.511 637.554 329.636 639.33 333.131 640.014C336.917 640.756 340.841 640.148 344.671 639.597C401.645 631.389 460.198 638.145 514.078 657.899C526.772 662.553 539.43 667.764 551.52 674.153C558.458 677.819 565.321 681.765 572.612 684.488C580.122 687.291 587.803 688.707 595.233 689.23C597.073 689.36 598.918 689.44 600.752 689.404C604.386 689.33 607.992 688.819 611.517 687.369C616.946 685.129 621.492 680.704 625.94 676.499C647.603 656.03 667.641 633.529 683.893 608.441C689.059 600.462 693.982 591.992 695.45 582.564C696.764 574.119 695.216 565.645 693.377 557.221C692.775 554.463 692.141 551.714 691.567 548.973C686.706 525.752 687.061 501.699 690.253 478.424C691.359 470.364 692.21 462.036 690.073 453.946C687.97 445.976 682.823 439.115 677.479 432.919C663.309 416.45 646.843 402.634 634.357 385.827C632.692 383.591 631.095 381.292 629.504 378.945C627.542 376.045 625.6 373.085 623.438 370.215C620.673 366.546 617.622 363.133 614.38 359.935C589.083 334.851 561.295 332.855 529.317 327.848C522.76 326.821 516.129 324.64 509.531 322.009C505.057 320.219 500.594 318.212 496.126 316.322C490.273 313.847 484.435 311.585 478.791 309.742C458.628 303.161 438.478 296.847 418.309 290.755C412.631 289.038 406.845 287.317 400.866 287.247C394.305 287.169 387.919 289.089 381.673 290.987C372.414 293.802 363.147 296.59 353.901 299.443C344.043 302.485 333.679 305.307 323.404 308.313C315.604 310.565 307.702 313.105 300.419 316.446C284.13 323.919 269.288 336.108 260.669 351.512C253.623 364.185 251.553 378.737 249.627 392.869C247.627 407.546 246.332 422.356 243.728 436.982Z" stroke="#D1D1D1" stroke-miterlimit="10"/>
<path d="M267.218 433.648C265.124 440.265 262.204 447.015 261.44 453.878C260.476 462.566 261.83 471.04 266.523 478.756C271.46 486.872 277.878 494.36 282.658 502.643C286.289 508.934 289.146 515.572 290.841 522.607C294.791 538.947 292.221 555.562 293.061 572.017C293.193 574.595 293.418 577.247 294.438 579.696C295.794 582.955 298.401 585.426 300.906 587.78C307.738 594.205 314.954 600.655 323.116 605.552C326.676 607.689 330.329 609.506 334.006 611.171C336.752 612.411 339.563 613.591 342.612 614.033C345.91 614.513 349.301 614.08 352.629 613.68C402.129 607.708 452.509 610.816 500.035 624.662C514.994 629.02 529.91 634.282 543.763 641.815C551.712 646.137 559.502 651.045 568.084 653.653C576.925 656.339 586.042 656.402 594.535 654.967C596.634 654.614 598.71 654.17 600.74 653.607C604.767 652.49 608.655 650.921 612.412 648.633C618.207 645.098 623.139 639.789 628.17 634.827C643.809 619.408 658.792 602.894 670.516 584.286C674.252 578.35 677.766 572.068 678.899 565.126C679.914 558.909 678.955 552.658 677.723 546.422C677.32 544.383 676.887 542.349 676.487 540.325C673.1 523.175 673.44 505.558 674.051 488.509C674.31 481.316 673.557 474.017 671.183 466.846C668.849 459.789 664.477 453.472 660.037 447.581C648.209 431.843 635.29 417.757 626.814 401.267C625.684 399.079 624.625 396.824 623.503 394.559C622.119 391.753 620.641 388.938 618.73 386.299C616.292 382.932 613.284 380.08 610.192 377.385C586.369 356.625 560.951 351.227 532.752 343.705C526.837 342.127 520.882 339.742 514.944 337.075C510.884 335.243 506.83 333.265 502.688 331.55C497.304 329.319 491.826 327.555 486.488 326.098C468.061 321.07 449.633 316.635 431.177 312.616C425.981 311.483 420.715 310.363 415.318 310.36C409.396 310.354 403.592 311.692 397.88 313.024C389.415 314.998 380.937 316.937 372.493 318.971C363.827 321.057 354.134 322.694 344.623 324.663C337.309 326.177 330.006 328.029 323.638 330.971C309.503 337.498 296.664 350.71 288.658 363.739C282.21 374.231 279.156 386.029 276.205 397.557C273.143 409.536 270.968 421.797 267.218 433.648Z" stroke="#D1D1D1" stroke-miterlimit="10"/>
<path d="M290.709 430.312C287.446 437.039 283.494 443.977 281.523 451.231C278.996 460.527 278.736 469.997 283.206 478.68C286.751 485.568 292 491.649 296.038 498.327C299.089 503.377 301.569 508.7 303.366 514.277C307.561 527.266 307.934 540.699 310.497 553.802C310.898 555.854 311.357 557.937 312.23 559.91C313.391 562.536 315.214 564.749 317.007 566.893C322.102 572.99 327.815 579.052 334.927 582.822C338.028 584.467 341.271 585.634 344.548 586.57C346.999 587.269 349.496 587.852 352.097 588.05C354.908 588.266 357.764 588.011 360.59 587.76C402.618 584.021 445.103 582.526 485.994 591.42C503.301 595.185 520.389 600.794 536.006 609.47C544.965 614.446 553.683 620.318 563.556 622.81C573.729 625.378 584.28 624.09 593.836 620.696C596.196 619.859 598.502 618.895 600.729 617.805C605.149 615.643 609.319 613.017 613.308 609.891C619.467 605.059 624.822 598.912 630.398 593.152C640.217 583.006 649.938 572.255 657.136 560.129C659.442 556.236 661.549 552.142 662.346 547.687C663.06 543.699 662.692 539.67 662.069 535.622C661.865 534.303 661.634 532.987 661.408 531.677C659.492 520.596 659.111 509.264 657.85 498.595C657.092 492.187 654.903 485.996 652.292 479.747C649.728 473.604 646.133 467.828 642.592 462.243C633.109 447.234 623.735 432.879 619.268 416.705C618.674 414.564 618.154 412.355 617.5 410.171C616.691 407.459 615.679 404.79 614.021 402.381C611.911 399.318 608.951 397.015 606.004 394.834C583.714 378.333 560.624 369.514 536.188 359.563C530.915 357.416 525.634 354.845 520.358 352.141C516.714 350.27 513.065 348.32 509.252 346.779C504.334 344.791 499.221 343.515 494.19 342.456C477.507 338.946 460.792 336.427 444.052 334.479C439.338 333.929 434.589 333.414 429.775 333.474C424.492 333.539 419.27 334.297 414.093 335.062C406.42 336.195 398.742 337.311 391.087 338.498C383.622 339.658 374.583 340.05 365.843 341.013C359.009 341.766 352.313 342.956 346.86 345.497C334.879 351.078 324.077 365.336 316.648 375.968C310.831 384.295 306.758 393.32 302.786 402.247C298.659 411.526 295.164 421.123 290.709 430.312Z" stroke="#D1D1D1" stroke-miterlimit="10"/>
<path d="M314.2 426.978C303.302 442.083 292.829 461.305 299.886 478.609C302.175 484.224 306.119 488.94 309.413 494.013C319.781 509.982 323.668 529.458 333.108 546.01C336.416 551.808 340.678 557.453 346.739 560.097C351.362 562.113 356.553 562.177 361.582 562.072C398.453 561.307 435.397 553.243 471.953 558.186C491.665 560.85 510.871 567.314 528.251 577.132C538.221 582.764 547.864 589.599 559.03 591.976C573.372 595.03 588.465 590.173 600.72 582.009C612.973 573.843 622.878 562.594 632.629 551.48C639.363 543.805 646.496 535.109 646.417 524.827C646.375 519.161 644.091 513.78 641.648 508.686C629.701 483.776 612.52 459.848 611.725 432.149C611.589 427.451 611.849 422.397 609.311 418.468C607.528 415.71 604.622 413.952 601.816 412.289C576.467 397.264 551.119 382.24 525.77 367.215C522.543 365.302 519.299 363.38 515.815 362.013C511.365 360.267 506.616 359.463 501.889 358.817C471.303 354.637 440.388 356.697 409.684 358.033C398.428 358.522 380.318 355.203 370.083 360.031C360.256 364.666 351.516 379.989 344.641 388.204C334.097 400.8 323.822 413.637 314.2 426.978Z" stroke="#D1D1D1" stroke-miterlimit="10"/>
<path d="M300.428 125.381C300.647 126.582 300.915 127.792 301.472 128.874C302.106 130.108 303.083 131.12 304.018 132.138C310.056 138.71 314.952 146.364 318.414 154.639C322.284 154.575 326.121 153.199 329.171 150.778C329.794 150.284 330.414 149.702 330.621 148.928C330.827 148.16 330.587 147.348 330.349 146.589C327.022 135.944 324.107 127.342 317.986 118.106C314.482 112.82 312.988 107.469 311.024 101.532C310.114 98.777 308.561 91.9651 306.24 90.298C301.944 87.2092 297.024 91.3024 296.918 95.2483C296.79 100.027 298.823 105.806 299.129 110.77C299.416 115.412 299.02 120.91 300.428 125.381Z" stroke="#D1D1D1" stroke-miterlimit="10"/>
<path d="M313.661 68.6559C315.556 69.4621 317.501 70.3664 318.824 71.9656C319.898 73.2626 320.465 74.9052 320.981 76.5175C331.221 108.455 330.61 144.497 348.387 172.815C349.251 174.189 350.189 175.66 350.135 177.29C350.091 178.632 349.375 179.846 348.636 180.958C343.365 188.886 335.723 195.159 326.988 198.73C325.469 199.351 323.772 199.896 322.219 199.366C320.591 198.809 319.555 197.229 318.642 195.75C313.284 187.069 307.831 178.147 305.8 168.108C304.78 163.065 304.65 157.836 303.158 152.915C301.556 147.635 298.47 142.975 295.726 138.204C290.222 128.632 285.938 118.15 284.795 107.126C283.743 96.991 285.369 86.7901 286.991 76.7346C287.898 71.1122 287.374 63.5904 294.174 62.6464C296.463 62.3235 313.661 66.9322 313.661 68.6559Z" stroke="#D1D1D1" stroke-miterlimit="10"/>
<path d="M330.422 44.6027C331.598 44.9539 332.854 45.3655 333.593 46.3605C334.036 46.9571 334.24 47.6972 334.43 48.4184C340.104 69.9189 343.027 92.169 343.099 114.429C343.114 119.137 343.006 123.882 343.838 128.515C344.589 132.687 346.087 136.677 347.579 140.64C352.781 154.467 357.983 168.293 363.186 182.121C364.328 185.157 365.49 188.346 365.094 191.57C364.338 197.74 358.372 201.669 352.9 204.454C340.758 210.632 327.984 215.521 314.85 219.022C310.099 209.799 304.638 200.952 298.537 192.588C296.69 190.056 294.759 187.524 293.624 184.59C291.796 179.863 292.205 174.603 292.207 169.522C292.208 160.558 290.798 151.464 286.935 143.406C282.682 134.536 275.576 127.11 272.649 117.702C270.52 110.853 270.789 103.497 271.245 96.3283C271.943 85.3741 273.03 74.4463 274.503 63.5715C275.505 56.1875 275.263 44.6065 281.027 39.0048C285.683 34.4812 292.567 35.3874 298.362 36.4258C309.164 38.361 319.911 41.4686 330.422 44.6027Z" stroke="#D1D1D1" stroke-miterlimit="10"/>
<path d="M246.026 -94.4428C243.902 -42.7494 275.109 8.75527 321.489 30.1048C329.662 33.8676 336.717 28.8964 342.391 35.9595C346.783 41.4252 350.501 56.6614 352.199 63.5054C364.267 112.138 376.337 160.771 388.404 209.406C390.015 215.895 391.658 222.469 394.848 228.324C397.373 232.955 400.807 237.014 404.502 240.745C447.957 284.613 518.63 279.423 575.511 302.515C621.959 321.372 658.229 358.879 693.044 395.372C704.889 407.788 717.029 420.664 723.183 436.786C728.97 451.946 728.954 468.672 728.565 484.93C727.618 524.493 724.927 564.012 720.503 603.33C718.082 624.846 714.396 647.913 699.439 663.338C692.613 670.378 680.328 671.985 674.178 679.641C674.178 679.641 677.379 705.544 680.222 717.356C696.18 719.878 727.731 709.738 727.731 709.738C747.998 711.635 763.204 725.302 763.204 725.302C762.463 739.694 762.572 760.279 759.113 774.256C752.662 800.329 771.871 825.98 793.437 841.556C815.003 857.13 840.579 867.954 857.429 888.68C872.172 906.813 878.407 930.32 887.894 951.775C909.605 1000.88 950.422 1040.94 999.469 1061.28" stroke="#D1D1D1" stroke-miterlimit="10"/>
<path d="M929.213 948.783C929.213 948.783 880.513 877.264 867.992 867.287C839.728 844.769 812.608 820.765 786.782 795.404C782.639 791.335 778.41 787.053 776.347 781.587C772.644 771.775 776.725 760.919 777.512 750.441C779.11 729.169 765.107 707.691 745.207 700.892C738.424 698.574 712.518 704.655 703.096 700.6L694.241 682.059C718.003 649.688 738.842 611.964 739.624 571.585C740.308 536.247 740.6 500.902 740.503 465.557C740.473 454.639 740.334 443.365 736.016 433.368C732.928 426.22 727.878 420.164 722.9 414.218C705.983 394.019 689.066 373.819 672.151 353.619C636.676 311.26 581.059 289.323 527.678 277.017C491.962 268.784 451.443 267.625 425.288 241.576C405.45 221.818 399.045 192.39 393.549 164.721C388.328 138.434 377.29 121.716 372.069 95.4296C367.855 74.2141 351.897 36.7883 337.449 20.8838C319.131 0.719931 288.673 -23.9373 269.034 -42.772" stroke="#D1D1D1" stroke-miterlimit="10"/>
<path d="M299.979 -34.2345C333.85 -12.4545 357.134 23.0757 373.249 60.3694C389.361 97.665 399.222 137.385 412.531 175.804C421.12 200.602 432.354 226.394 454.088 240.66C469.445 250.738 488.101 253.731 505.958 257.711C574.414 272.964 638.915 306.193 691.483 353.289C709.766 369.667 726.917 388.113 737.298 410.524C749.916 437.762 751.627 468.71 753.132 498.774C755.859 553.315 757.229 612.736 725.356 656.707C718.746 665.828 710.87 678.973 718.82 686.914C725.527 693.614 736.577 688.922 745.982 688.726C764.462 688.343 777.973 706.994 782.934 725.087C787.895 743.18 787.908 762.832 796.213 779.611C803.952 795.243 817.97 806.517 831.556 817.269C863.902 842.864 896.25 868.46 928.596 894.055C937.843 901.373 947.183 908.782 954.492 918.093C971.207 939.383 976.17 969.111 995.66 987.808" stroke="#D1D1D1" stroke-miterlimit="10"/>
<path d="M398.473 83.2369C412.884 106.104 414.292 134.638 420.764 160.983C422.029 166.135 423.508 171.255 425.661 176.094C428.5 182.472 432.46 188.257 436.399 194C441.891 202.011 447.485 210.135 454.954 216.275C470.365 228.945 491.611 231.554 508.424 242.224C512.101 244.557 515.624 247.304 519.773 248.584C523.922 249.864 529.011 249.288 531.712 245.843C530.467 233.552 520.111 224.541 514.548 213.552C506.265 197.193 508.424 175.868 496.512 162.014C492.7 157.579 487.754 154.347 482.975 151.018C471.825 143.255 461.197 134.628 451.98 124.584C445.752 117.797 440.159 110.354 433.182 104.367C427.41 99.4133 420.799 95.5523 414.942 90.6983C411.275 87.6586 407.915 84.2338 404.933 80.4993C403.061 78.1544 399.266 69.5187 396.617 68.6899C385.761 65.3028 397.098 81.0544 398.473 83.2369Z" stroke="#D1D1D1" stroke-miterlimit="10"/>
<path d="M423.393 136.363C423.933 140.098 424.483 143.876 425.905 147.363C427.3 150.79 429.483 153.81 431.374 156.982C436.374 165.363 439.34 174.805 442.303 184.132C443.595 188.195 445.003 192.433 448.046 195.377C450.484 197.735 453.717 199.005 456.827 200.312C472.851 207.042 487.895 216.182 501.315 227.338C504.024 229.591 508.626 231.679 510.406 228.615C511.283 227.106 510.745 225.192 510.185 223.534C505.013 208.198 499.842 192.862 494.669 177.526C493.74 174.771 492.78 171.956 490.988 169.685C489.082 167.266 486.382 165.65 483.718 164.14C472.513 157.792 460.428 152.081 452.322 141.978C447.39 135.833 444.245 128.415 439.763 121.922C437.008 117.929 427.915 106.565 422.047 111.506C417.453 115.376 422.612 130.958 423.393 136.363Z" stroke="#D1D1D1" stroke-miterlimit="10"/>
<path d="M209.089 -86.7888C228.735 -50.9489 248.945 -12.9473 248.315 28.0733C247.953 51.6771 240.638 75.5679 246.041 98.5278C251.542 121.903 269.541 140.802 274.429 164.319C279.427 188.357 273.541 220.67 295.313 231.354C304.126 235.68 314.503 234.164 324.19 235.566C333.878 236.969 344.634 243.951 343.692 253.85C299.912 257.182 257.91 279.999 230.863 315.138C203.816 350.279 192.146 397.2 199.513 441.177C201.237 451.469 203.978 461.662 208.628 470.972C213.903 481.531 221.489 490.692 227.747 500.681C250.972 537.758 254.346 586.863 236.418 626.858C250.415 641.951 264.409 657.045 278.405 672.138C283.266 677.379 288.279 682.737 294.672 685.849C303.113 689.955 312.886 689.661 322.243 689.479C368.232 688.583 414.309 692.476 459.521 701.077C479.309 704.842 499.335 709.67 516.478 720.394C533.622 731.117 560.833 743.554 566.269 771.169C566.269 771.169 538.312 835.854 509.741 853.465C454.897 887.27 418.48 948.149 385.376 1003.98" stroke="#D1D1D1" stroke-miterlimit="10"/>
<path d="M-20.3684 966.574C-15.0861 942.872 -6.3498 919.966 5.46522 898.838C14.7292 882.271 25.9571 866.612 32.0941 848.608C37.5083 832.724 38.7123 815.722 42.1793 799.285C50.4251 760.202 71.5153 724.766 98.0401 695.249C124.565 665.732 156.439 641.705 189.194 619.572C192.142 617.579 195.253 615.423 196.679 612.13C197.701 609.77 197.727 607.112 197.874 604.538C199.138 582.177 210.546 561.177 210.518 538.779C210.481 511.231 193.484 487.207 179.59 463.552C165.695 439.897 154.196 410.565 165.493 385.523C183.092 346.509 184.911 301.012 206.965 264.411C212.833 254.675 220.096 245.816 225.324 235.712C237.143 212.873 237.568 185.929 237.726 160.126C237.76 154.679 237.777 149.115 236.082 143.947C234.479 139.059 231.441 134.815 228.503 130.614C195.47 83.3842 169.828 31.3207 144.325 -20.5049C136.406 -36.5963 128.483 -52.6953 121.33 -69.153" stroke="#D1D1D1" stroke-miterlimit="10"/>
<path d="M-0.800049 959.118C6.16559 919.109 38.3554 888.694 52.8794 850.839C64.7911 819.793 64.4622 784.591 78.9657 754.706C89.0026 734.027 105.448 717.38 122.053 701.668C143.583 681.295 165.898 661.779 188.931 643.18C193.435 639.542 198.045 635.856 201.25 631.002C205.012 625.306 206.56 618.44 208.035 611.747C212.162 593.036 216.289 574.326 220.415 555.616C221.389 551.202 224.717 545.508 228.713 547.5C236.688 568.593 229.159 592.16 221.125 613.231C219.496 617.503 217.816 621.953 218.193 626.518C218.63 631.814 221.753 636.432 224.77 640.771C237.433 658.973 250.093 677.173 262.755 695.376C265.169 698.844 267.726 702.442 271.443 704.383C275.347 706.42 279.951 706.332 284.336 706.169C324.569 704.682 364.918 700.955 405 704.776C445.083 708.597 485.641 720.667 516.363 747.107C523.737 753.454 530.718 760.98 533.38 770.422C536.983 783.196 531.85 797.154 523.516 807.392C515.181 817.631 503.981 824.947 493.222 832.499C465.149 852.206 438.914 874.613 414.979 899.321C383.332 931.991 355.841 968.518 328.441 1004.94" stroke="#D1D1D1" stroke-miterlimit="10"/>
<path d="M23.6216 954.241C32.4898 930.167 44.2658 907.2 58.6003 886.02C62.5504 880.184 66.7086 874.458 69.9174 868.169C76.4464 855.372 78.7485 840.863 81.463 826.714C85.5487 805.416 90.7623 784.338 97.0702 763.606C98.9282 757.498 100.918 751.342 104.342 745.98C107.482 741.059 111.721 736.981 115.916 732.956C134.754 714.873 153.592 696.79 172.431 678.706C182.986 668.575 196.609 657.638 210.468 662.037C229.666 668.132 230.289 696.489 245.013 710.412C255.426 720.257 271.061 721.196 285.282 720.926C319.088 720.282 352.865 715.887 386.626 717.79C420.388 719.693 455.111 728.636 480.641 751.164C493.803 762.779 504.6 781.123 498.27 797.628C484.268 802.063 469.889 806.7 458.527 816.123C445.367 827.037 437.668 843.178 426.932 856.556C407.208 881.14 377.985 895.596 354.602 916.608C327.596 940.876 309.094 973.195 291.064 1004.92" stroke="#D1D1D1" stroke-miterlimit="10"/>
<path d="M58.2621 964.314C68.2971 943.278 78.3322 922.241 88.3672 901.205C94.5191 888.308 100.697 875.345 104.755 861.62C112.904 834.055 112.179 804.625 117.584 776.373C118.621 770.95 119.933 765.456 122.846 760.793C125.208 757.013 128.515 753.958 131.779 750.953C147.245 736.713 162.711 722.474 178.176 708.235C179.4 707.108 180.749 705.922 182.395 705.777C184.339 705.605 186.065 706.915 187.655 708.063C204.929 720.512 228.278 719.893 247.289 729.373C257.172 734.3 265.754 741.903 276.179 745.5C286.246 748.974 297.162 748.417 307.786 748.004C348.153 746.431 388.62 747.486 428.853 751.166C431.555 751.413 434.388 751.719 436.62 753.286C439.121 755.044 440.408 758.057 441.571 760.914C444.917 769.123 448.266 777.334 451.612 785.545C441.109 794.278 430.932 803.422 421.116 812.945C417.354 816.597 413.541 820.454 411.607 825.361C409.872 829.76 409.794 834.638 408.61 839.222C405.297 852.057 393.837 861.002 382.1 866.813C370.361 872.627 357.538 876.414 346.891 884.098C332.501 894.484 323.644 910.791 314.109 925.885C294.256 957.315 269.554 985.576 241.182 1009.32C240.186 1010.15 239.083 1011.22 239.254 1012.52C239.423 1013.82 241.829 1014.12 241.76 1012.81" stroke="#D1D1D1" stroke-miterlimit="10"/>
<path d="M161.734 880.537C161.81 877.639 161.933 874.575 163.477 872.138C164.781 870.08 166.925 868.752 169.023 867.548C183.924 858.988 200.386 852.85 213.45 841.612C222.004 834.253 232.117 824.082 242.448 828.497C252.36 832.729 252.793 847.312 248.133 857.158C243.473 867.004 235.45 875.387 233.349 886.103C238.919 888.941 244.595 891.856 248.982 896.351C253.369 900.847 256.319 907.283 255.121 913.496C254.25 918.022 251.345 921.858 249.868 926.218C248.707 929.644 248.399 933.454 246.383 936.443C245.065 938.395 243.133 939.815 241.24 941.193C227.29 951.356 213.34 961.518 199.388 971.681C197.571 973.004 195.663 974.367 193.454 974.715C191.224 975.066 188.982 974.337 186.838 973.618C170.714 968.209 160.237 961.801 160.079 943.901C159.897 922.823 161.184 901.615 161.734 880.537Z" stroke="#D1D1D1" stroke-miterlimit="10"/>
<path d="M147.851 873.469C148.544 868.647 149.339 863.755 151.445 859.377C153.914 854.243 158.04 850.131 162.397 846.519C180.847 831.229 205.68 821.983 216.672 800.522C217.762 798.394 218.83 796.029 220.93 794.932C222.697 794.01 224.804 794.209 226.779 794.43C239.358 795.838 251.938 797.245 264.517 798.653C266.364 798.859 268.359 799.136 269.678 800.467C270.756 801.555 271.161 803.139 271.434 804.657C274.855 823.641 265.336 846.221 277.632 860.929C280.873 864.805 285.525 867.871 286.805 872.789C289.111 881.655 279.015 890.106 280.956 899.061C281.783 902.871 284.682 905.905 285.785 909.641C287.688 916.079 283.927 922.723 280.111 928.213C265.017 949.92 246.398 969.088 225.235 984.712C221.43 987.521 217.43 990.268 212.857 991.384C208.372 992.479 203.675 991.92 199.097 991.355C181.561 989.194 164.025 987.034 146.489 984.872C134.368 983.382 146.61 882.11 147.851 873.469Z" stroke="#D1D1D1" stroke-miterlimit="10"/>
<path d="M225.389 1005.64C247.133 982.733 268.877 959.826 290.62 936.917C296.062 931.183 301.612 925.292 304.817 918.022C310.865 904.305 307.567 888.429 308.691 873.442C308.836 871.501 309.088 869.479 310.166 867.871C311.582 865.756 314.116 864.78 316.489 863.931C334.125 857.613 351.83 851.496 369.598 845.579C367.92 831.485 366.963 815.165 376.968 805.259C382.385 799.899 390.082 797.562 395.838 792.583C401.596 787.604 404.528 777.356 398.508 772.712C364.226 771.662 329.944 770.612 295.661 769.563C283.624 769.194 271.486 768.813 259.781 765.943C250.047 763.559 240.805 759.5 231.396 756.016C220.869 752.117 210.087 748.925 199.147 746.469C196.668 745.912 194.112 745.391 191.605 745.808C188.378 746.346 185.609 748.37 182.973 750.335C171.299 759.035 159.627 767.737 147.953 776.437C145.616 785.947 150.961 795.827 149.947 805.574C148.631 818.218 137.426 826.982 130.391 837.495C119.034 854.47 118.589 876.306 114.061 896.312C107.317 926.116 90.8792 953.471 87.9696 983.909" stroke="#D1D1D1" stroke-miterlimit="10"/>
<path d="M-116.624 1015.95C-77.7509 869.177 0.491288 733.381 107.425 627.098C129.771 604.887 154.965 580.661 157.124 548.972C160.376 501.244 110.617 466.929 99.2496 420.503C91.2583 387.869 103.404 353.583 119.559 324.234C135.715 294.884 156.184 267.621 167.072 235.865C181.659 193.32 177.182 144.44 155.121 105.36C145.989 89.1859 134.13 74.8032 122.335 60.5148C76.1435 4.56014 29.9499 -51.3945 -16.2419 -107.347" stroke="#D1D1D1" stroke-miterlimit="10"/>
<path d="M-167.487 1014.19C-145.195 949.495 -120.909 885.088 -86.6954 826.008C-39.8608 745.136 24.2941 676.354 81.4183 602.626C94.9836 585.116 108.855 565.094 107.192 542.874C105.188 516.065 81.6673 496.716 70.3223 472.427C52.8887 435.103 65.8408 391.113 79.4748 352.188C88.0755 327.633 96.9791 302.936 110.647 280.88C123.019 260.915 139.295 243.081 147.355 220.953C161.452 182.257 147.21 138.066 123.378 104.658C99.5468 71.25 67.0132 45.492 38.4372 16.177C6.69697 -16.3797 -20.3685 -53.6375 -41.637 -94.0501" stroke="#D1D1D1" stroke-miterlimit="10"/>
<path d="M-282.163 955.825C-235.631 920.031 -189.099 884.234 -142.567 848.44C-139.756 846.276 -136.9 844.069 -134.834 841.165C-132.285 837.584 -131.118 833.207 -130 828.936C-121.552 796.686 -113.103 764.433 -104.655 732.182C-98.2094 707.578 -90.1624 680.677 -68.9608 667.11C-50.0241 654.993 -22.9344 655.331 -9.8411 636.889C-5.24813 630.421 -3.17273 622.503 -1.28686 614.758C4.89099 589.376 9.97818 563.72 13.9562 537.888C15.3812 528.637 16.589 518.77 12.8005 510.235C9.1198 501.944 1.40908 496.42 -4.99731 490.069C-18.3582 476.824 -26.5371 459.236 -34.4373 442.051C-42.5698 424.361 -50.7022 406.672 -58.8366 388.981C-49.5763 373.811 -42.4212 358.064 -33.1609 342.892C-24.2295 328.26 -15.259 313.573 -4.41203 300.346C3.2708 290.977 11.8585 282.391 19.2942 272.817C51.3986 231.486 59.0851 176.417 65.6401 124.188C66.5617 116.84 67.4684 109.244 65.419 102.136C63.6595 96.0319 59.8581 90.7832 56.1272 85.6762C20.749 37.2584 -14.6255 -11.1612 -50.0018 -59.5809" stroke="#D1D1D1" stroke-miterlimit="10"/>
<path d="M164.4 -39.2396C164.202 -7.37956 188.239 18.7296 198.996 48.6563C201.536 55.7212 203.374 63.124 207.103 69.6206C210.832 76.1172 216.974 81.7699 224.347 82.4364C235.924 71.0291 234.088 52.0018 231.402 35.8443C229.743 25.87 227.979 15.6125 222.732 7.01644C218.565 0.191317 212.467 -5.13851 207.073 -11.0083C196.988 -21.9832 189.203 -35.1313 184.383 -49.3271" stroke="#D1D1D1" stroke-miterlimit="10"/>
<path d="M243.326 205.866C239.044 233.778 227.968 260.586 211.363 283.24C209.368 285.963 207.246 288.725 206.412 292.012C205.577 295.299 206.413 299.298 209.273 301.05C213.678 303.752 219.039 299.772 222.63 296.028C226.92 291.557 231.156 287.026 235.642 282.757C249.616 269.458 265.99 258.772 283.704 251.392C283.652 247.585 283.6 243.779 283.548 239.973C277.149 236.724 272.086 230.854 269.76 223.98C265.409 211.13 269.283 196.035 258.099 185.961C244.777 173.955 244.737 196.674 243.326 205.866Z" stroke="#D1D1D1" stroke-miterlimit="10"/>
<path d="M249.64 231.615C249.194 232.16 248.936 232.833 248.683 233.493C246.18 240.045 243.679 246.596 241.177 253.147C240.993 253.629 240.805 254.137 240.868 254.65C240.946 255.29 241.4 255.819 241.896 256.223C245.524 259.176 251.15 256.925 254.144 253.31C259.188 247.215 256.955 222.662 249.64 231.615Z" stroke="#D1D1D1" stroke-miterlimit="10"/>
<path d="M-237.229 946.134C-201.165 918.509 -166.123 889.509 -132.198 859.214C-127.142 854.7 -121.995 850.007 -118.928 843.92C-116.267 838.639 -115.349 832.661 -114.341 826.816C-108.198 791.243 -97.3677 756.705 -86.569 722.295C-83.7876 713.429 -80.8668 704.306 -74.9212 697.228C-70.5586 692.034 -64.823 688.26 -59.1412 684.614C-42.0606 673.658 -24.679 663.187 -7.02429 653.218C-3.62229 651.298 -0.116233 649.316 2.29917 646.216C4.18132 643.801 5.27381 640.863 6.31801 637.973C18.6533 603.796 28.1235 568.553 34.5968 532.749C35.7543 526.347 36.7929 519.603 34.7027 513.45C32.7573 507.722 28.3576 503.275 24.2756 498.857C-1.78102 470.668 -20.0359 435.107 -27.8803 397.262C4.92264 349.371 36.609 298.661 67.0542 249.188C70.3038 243.908 73.5702 238.553 75.4951 232.638C77.6745 225.939 78.048 218.793 78.4028 211.746C79.2185 195.546 80.0341 179.347 80.848 163.148C81.8773 142.686 82.8676 121.811 77.5352 102.051C72.8511 84.6944 59.7244 72.2997 49.7153 57.4525C41.2558 44.903 32.7796 32.3308 23.1905 20.6497C10.7902 5.54571 -3.3919 -7.97048 -15.8256 -23.0462C-29.6194 -39.7701 -41.2078 -58.3706 -50.1801 -78.1965" stroke="#D1D1D1" stroke-miterlimit="10"/>
<path d="M-216.952 967.923C-196.401 951.73 -182.864 928.249 -165.493 908.584C-146.283 886.836 -122.001 869.315 -107.26 844.224C-83.1838 803.246 -69.1411 761.731 -53.3258 716.795L38.5189 630.632L67.8939 517.939L6.74709 404.029L93.6699 265.142L126.042 223.719L114.052 137.828L72.6894 67.1662L-11.2365 -30.2961" stroke="#D1D1D1" stroke-miterlimit="10"/>
<path d="M364.804 -415.157C400.441 -362.205 437.192 -306.25 443.371 -242.409C446.508 -210.017 442.537 -173.824 462.581 -148.434C470.587 -138.293 481.641 -131.159 490.817 -122.102C517.182 -96.0797 525.844 -56.5129 526.701 -19.1758C527.557 18.1613 521.915 55.5909 525.291 92.7788C531.84 164.927 574.478 232.734 636.154 269.092C671.268 289.79 711.732 300.723 744.681 324.82C745.783 326.343 824.403 322.722 824.403 322.722L834.596 335.024C829.401 351.248 824.349 380.669 824.349 380.669C824.349 380.669 845.721 411.86 869.257 428.93C884.572 440.037 883.205 464.284 886.016 483.189C901.157 585.033 914.623 698.262 970.518 784.185" stroke="#D1D1D1" stroke-miterlimit="10"/>
<path d="M360.477 -532.563C410.037 -508.309 442.459 -451.877 438.875 -396.1C438.243 -386.271 429.992 -381.97 433.728 -372.879C436.62 -365.845 449.016 -354.49 454.57 -349.362C494.037 -312.924 533.505 -276.488 572.974 -240.049C578.24 -235.188 583.569 -230.25 587.435 -224.181C590.493 -219.379 592.554 -213.989 594.172 -208.51C613.196 -144.105 572.361 -78.3098 565.069 -11.4746C559.114 43.1018 575.83 97.3119 592.337 149.6C597.952 167.389 603.849 185.699 615.835 199.862C627.107 213.184 642.802 221.68 658.245 229.576C695.829 248.794 734.262 266.301 773.388 282.026C794.797 290.632 818.307 298.801 840.385 292.169C850.461 289.14 858.22 278.063 868.53 276.004C868.53 276.004 891.194 292.288 900.826 301.052C895.07 317.789 869.502 343.18 869.502 343.18C860.966 363.773 866.046 385.453 866.046 385.453C879.922 392.059 899.17 402.641 914.04 406.406C941.776 413.429 956.055 445.085 959.685 473.896C963.316 502.707 960.451 532.979 971.313 559.847C980.815 583.353 999.686 601.355 1014.98 621.46C1049.98 667.475 1066.78 727.387 1060.89 785.237" stroke="#D1D1D1" stroke-miterlimit="10"/>
<path d="M991.147 659.942C991.147 659.942 948.859 576.384 945.875 559.183C939.142 520.352 930.431 481.875 919.791 443.958C918.083 437.875 916.22 431.601 912.143 426.821C904.826 418.24 892.569 416.667 882.341 412.096C861.578 402.819 848.562 378.326 852.314 355.596C853.592 347.848 872.478 325.856 873.471 314.668L860.591 296.656C818.137 303.193 772.152 304.173 733.888 284.379C700.4 267.056 667.103 249.351 634.004 231.267C623.78 225.681 613.276 219.811 606.101 210.539C600.969 203.91 597.859 195.939 594.817 188.093C584.483 161.43 574.149 134.77 563.814 108.108C542.143 52.1963 549.876 -12.8245 565.503 -70.7786C575.958 -109.554 595.495 -149.382 584.375 -187.967C575.942 -217.233 551.602 -238.412 528.451 -257.815C506.456 -276.25 496.395 -295.447 474.4 -313.881C456.647 -328.761 429.671 -363.26 422.108 -385.344C412.521 -413.343 404.898 -455.387 397.228 -483.992" stroke="#D1D1D1" stroke-miterlimit="10"/>
<path d="M389.486 -449.676C392.672 -405.791 414.143 -365.161 440.919 -330.577C467.695 -295.992 499.927 -266.23 529.185 -233.789C548.072 -212.849 566.542 -188.845 568.859 -160.538C570.496 -140.538 563.807 -120.948 558.45 -101.632C537.916 -27.5793 536.253 51.7922 553.666 126.667C559.723 152.708 568.292 178.702 584.026 200.159C603.148 226.238 631.301 243.647 658.732 260.405C708.493 290.804 763.523 322.371 820.982 313.886C832.901 312.127 849.235 311.19 852.637 322.93C855.506 332.836 845.484 341.147 840.513 350.155C830.75 367.855 841.364 390.43 855.808 404.442C870.253 418.453 888.675 428.469 900.185 445.051C910.907 460.501 914.347 479.813 917.514 498.442C925.056 542.791 932.6 587.14 940.141 631.491C942.296 644.171 944.493 656.987 949.504 668.802C960.964 695.823 986.316 715.758 993.932 744.148" stroke="#D1D1D1" stroke-miterlimit="10"/>
<path d="M-438.541 554.153C-417.408 510.201 -394.815 464.6 -355.084 438.606C-334.848 425.367 -309.174 415.952 -300.325 392.807C-296.796 383.58 -296.505 373.202 -294.177 363.533C-287.51 335.834 -264.703 316.112 -240.142 302.643C-215.494 289.127 -187.97 280.127 -164.28 264.778C-118.122 234.87 -90.3781 181.069 -92.3364 125.6C-93.4419 94.329 -103.367 63.1524 -101.236 32.5932C-100.688 31.3207 -136.09 -19.1228 -136.09 -19.1228L-132.213 -30.1091C-119.341 -32.488 -97.7413 -39.6643 -97.7413 -39.6643C-97.7413 -39.6643 -86.0713 -64.6463 -84.6982 -85.9108C-83.8082 -99.697 -67.1828 -107.502 -55.8416 -116.079C5.49285 -162.46 75.6472 -212.252 108.634 -278.813" stroke="#D1D1D1" stroke-miterlimit="10"/>
<path d="M-513.811 596.165C-516.471 551.595 -491.959 509.3 -454.344 493.403C-447.688 490.59 -441.733 495.167 -437.215 489.416C-433.716 484.964 -431.033 472.167 -429.805 466.431C-421.115 425.811 -412.483 385.457 -403.906 345.367C-402.766 340.037 -401.602 334.643 -399.146 329.895C-397.205 326.139 -394.497 322.881 -391.566 319.902C-357.066 284.847 -297.889 290.838 -250.698 272.966C-211.854 258.255 -182.479 227.701 -154.277 197.931C-144.676 187.796 -134.838 177.28 -130.383 164.019C-126.2 151.567 -127.148 137.813 -128.389 124.484C-131.392 92.2276 -135.866 60.2619 -141.77 28.7304C-144.979 11.5911 -149.331 -6.68847 -162.783 -18.715C-168.895 -24.1808 -179.304 -25.2966 -184.837 -31.2268C-184.837 -31.2268 -183.421 -51.5209 -181.623 -60.7683C-168.392 -62.9905 -141.306 -55.5631 -141.306 -55.5631C-124.238 -57.368 -112.07 -68.3449 -112.07 -68.3449C-113.505 -79.6068 -114.558 -95.6831 -118.261 -106.488C-125.132 -126.544 -110.35 -146.806 -93.0016 -159.373C-75.62 -171.964 -54.5001 -181.043 -41.3882 -197.505C-29.9188 -211.907 -26.0784 -230.12 -19.3412 -246.836C-3.96815 -284.974 28.3276 -317.004 69.2315 -334.621" stroke="#D1D1D1" stroke-miterlimit="10"/>
<path d="M16.3622 -246.087C16.3622 -246.087 -20.8684 -189.43 -30.9908 -181.346C-53.807 -163.124 -75.5084 -143.82 -96.0003 -123.526C-99.2853 -120.272 -102.63 -116.851 -104.071 -112.558C-106.66 -104.846 -102.579 -96.4686 -101.314 -88.2973C-98.7353 -71.6565 -109.462 -54.5361 -126.022 -48.8853C-131.655 -46.9633 -153.881 -51.3529 -161.608 -48.0376L-168.117 -33.3811C-146.365 -8.13094 -126.57 21.7127 -123.666 54.1202C-121.106 82.6951 -118.867 111.476 -116.951 140.455C-116.357 149.447 -115.834 158.749 -119.03 166.974C-121.317 172.858 -125.375 177.82 -129.379 182.689C-142.982 199.236 -156.584 215.782 -170.185 232.327C-198.707 267.022 -245.395 284.097 -290.172 293.06C-319.882 299.007 -353.619 298.941 -374.446 319.79C-390.228 335.589 -394.646 359.844 -398.381 382.761C-401.944 404.618 -410.61 418.261 -414.205 440.237C-417.117 458.037 -429.357 489.163 -440.929 502.046C-455.594 518.376 -480.159 537.905 -495.911 552.994" stroke="#D1D1D1" stroke-miterlimit="10"/>
<path d="M-470.616 547.355C-443.078 530.442 -424.64 501.138 -412.252 470.049C-399.908 439.065 -392.877 405.911 -382.983 374.138C-376.62 353.702 -368.114 332.576 -350.518 321.348C-338.062 313.397 -322.567 311.413 -307.721 308.577C-250.344 297.618 -196.525 271.318 -153.39 232.948C-138.355 219.575 -124.411 204.448 -116.613 185.931C-107.154 163.473 -107.449 137.934 -107.875 113.26C-108.64 68.8447 -110.844 20.9651 -140.499 -13.7685C-146.592 -20.9051 -153.942 -31.1702 -147.638 -37.5195C-142.316 -42.8795 -132.701 -39.3414 -124.699 -39.315C-108.923 -39.2659 -98.4379 -54.1849 -95.2384 -68.5129C-92.0464 -82.8089 -93.1723 -98.1866 -87.0669 -111.455C-81.3852 -123.801 -70.0885 -132.899 -59.1189 -141.592C-32.9564 -162.32 -6.72698 -183.103 19.5693 -203.937C27.0998 -209.903 34.7082 -215.949 40.4197 -223.395C53.4759 -240.421 55.6609 -263.466 71.296 -278.576" stroke="#D1D1D1" stroke-miterlimit="10"/>
</g>
</g>
<defs>
<clipPath id="clip0_243_116">
<rect width="929" height="944" fill="white" transform="translate(-197 -12)"/>
</clipPath>
</defs>
</svg>
